<svg width="118" height="24" viewBox="0 0 118 24" fill="none" xmlns="http://www.w3.org/2000/svg">
<g clip-path="url(#clip0_21_13)">
<path d="M17 2H7C4.23858 2 2 4.23858 2 7V17C2 19.7614 4.23858 22 7 22H17C19.7614 22 22 19.7614 22 17V7C22 4.23858 19.7614 2 17 2Z" stroke="#41EAD4" stroke-width="2" stroke-linecap="round" stroke-linejoin="round"/>
<path d="M16 11.3701C16.1234 12.2023 15.9812 13.0523 15.5937 13.7991C15.2062 14.5459 14.5931 15.1515 13.8416 15.5297C13.0901 15.908 12.2384 16.0397 11.4077 15.906C10.5771 15.7723 9.80971 15.3801 9.21479 14.7852C8.61987 14.1903 8.22768 13.4229 8.09402 12.5923C7.96035 11.7616 8.09202 10.91 8.47028 10.1584C8.84854 9.40691 9.45414 8.7938 10.2009 8.4063C10.9477 8.0188 11.7977 7.87665 12.63 8.00006C13.4789 8.12594 14.2648 8.52152 14.8716 9.12836C15.4785 9.73521 15.8741 10.5211 16 11.3701Z" stroke="#41EAD4" stroke-width="2" stroke-linecap="round" stroke-linejoin="round"/>
</g>
<path d="M65 2H62C60.6739 2 59.4021 2.52678 58.4645 3.46447C57.5268 4.40215 57 5.67392 57 7V10H54V14H57V22H61V14H64L65 10H61V7C61 6.73478 61.1054 6.48043 61.2929 6.29289C61.4804 6.10536 61.7348 6 62 6H65V2Z" stroke="#41EAD4" stroke-width="2" stroke-linecap="round" stroke-linejoin="round"/>
<path d="M117 3.00005C116.042 3.67552 114.982 4.19216 113.86 4.53005C113.258 3.83756 112.457 3.34674 111.567 3.12397C110.677 2.90121 109.739 2.95724 108.882 3.2845C108.025 3.61176 107.288 4.19445 106.773 4.95376C106.258 5.71308 105.988 6.61238 106 7.53005V8.53005C104.243 8.57561 102.501 8.18586 100.931 7.39549C99.3607 6.60513 98.0103 5.43868 97 4.00005C97 4.00005 93 13 102 17C99.9405 18.398 97.4872 19.099 95 19C104 24 115 19 115 7.50005C114.999 7.2215 114.972 6.94364 114.92 6.67005C115.941 5.66354 116.661 4.39276 117 3.00005V3.00005Z" stroke="#41EAD4" stroke-width="2" stroke-linecap="round" stroke-linejoin="round"/>
<defs>
<clipPath id="clip0_21_13">
<rect width="24" height="24" fill="white"/>
</clipPath>
</defs>
</svg>
