<svg width="108" height="24" viewBox="0 0 108 24" fill="none" xmlns="http://www.w3.org/2000/svg">
<g clip-path="url(#clip0_46_38)">
<path d="M17 2H7C4.23858 2 2 4.23858 2 7V17C2 19.7614 4.23858 22 7 22H17C19.7614 22 22 19.7614 22 17V7C22 4.23858 19.7614 2 17 2Z" stroke="#41EAD4" stroke-width="2" stroke-linecap="round" stroke-linejoin="round"/>
<path d="M16 11.3698C16.1234 12.2021 15.9812 13.052 15.5937 13.7988C15.2062 14.5456 14.5931 15.1512 13.8416 15.5295C13.0901 15.9077 12.2384 16.0394 11.4077 15.9057C10.5771 15.7721 9.80971 15.3799 9.21479 14.785C8.61987 14.1901 8.22768 13.4227 8.09402 12.592C7.96035 11.7614 8.09202 10.9097 8.47028 10.1582C8.84854 9.40667 9.45414 8.79355 10.2009 8.40605C10.9477 8.01856 11.7977 7.8764 12.63 7.99981C13.4789 8.1257 14.2648 8.52128 14.8716 9.12812C15.4785 9.73496 15.8741 10.5209 16 11.3698Z" stroke="#41EAD4" stroke-width="2" stroke-linecap="round" stroke-linejoin="round"/>
</g>
<path d="M60 2H57C55.6739 2 54.4021 2.52678 53.4645 3.46447C52.5268 4.40215 52 5.67392 52 7V10H49V14H52V22H56V14H59L60 10H56V7C56 6.73478 56.1054 6.48043 56.2929 6.29289C56.4804 6.10536 56.7348 6 57 6H60V2Z" stroke="#41EAD4" stroke-width="2" stroke-linecap="round" stroke-linejoin="round"/>
<path d="M107 2.9998C106.042 3.67528 104.982 4.19191 103.86 4.5298C103.258 3.83731 102.457 3.34649 101.567 3.12373C100.677 2.90096 99.7395 2.957 98.8821 3.28426C98.0247 3.61151 97.2884 4.1942 96.773 4.95352C96.2575 5.71283 95.9877 6.61214 96 7.5298V8.5298C94.2426 8.57537 92.5013 8.18561 90.931 7.39525C89.3607 6.60488 88.0103 5.43844 87 3.9998C87 3.9998 83 12.9998 92 16.9998C89.9405 18.3978 87.4872 19.0987 85 18.9998C94 23.9998 105 18.9998 105 7.4998C104.999 7.22126 104.972 6.9434 104.92 6.6698C105.941 5.6633 106.661 4.39251 107 2.9998V2.9998Z" stroke="#41EAD4" stroke-width="2" stroke-linecap="round" stroke-linejoin="round"/>
<defs>
<clipPath id="clip0_46_38">
<rect width="24" height="24" fill="white"/>
</clipPath>
</defs>
</svg>
