<svg width="24" height="114" viewBox="0 0 24 114" fill="none" xmlns="http://www.w3.org/2000/svg">
<g clip-path="url(#clip0_21_14)">
<path d="M17 46H7C4.23858 46 2 48.2386 2 51V61C2 63.7614 4.23858 66 7 66H17C19.7614 66 22 63.7614 22 61V51C22 48.2386 19.7614 46 17 46Z" stroke="#41EAD4" stroke-width="2" stroke-linecap="round" stroke-linejoin="round"/>
<path d="M16 55.37C16.1234 56.2022 15.9812 57.0522 15.5937 57.799C15.2062 58.5458 14.5931 59.1514 13.8416 59.5297C13.0901 59.9079 12.2384 60.0396 11.4077 59.9059C10.5771 59.7723 9.80971 59.3801 9.21479 58.7852C8.61987 58.1902 8.22768 57.4229 8.09402 56.5922C7.96035 55.7615 8.09202 54.9099 8.47028 54.1584C8.84854 53.4069 9.45414 52.7937 10.2009 52.4062C10.9477 52.0187 11.7977 51.8766 12.63 52C13.4789 52.1259 14.2648 52.5215 14.8716 53.1283C15.4785 53.7351 15.8741 54.5211 16 55.37Z" stroke="#41EAD4" stroke-width="2" stroke-linecap="round" stroke-linejoin="round"/>
</g>
<path d="M18 92H15C13.6739 92 12.4021 92.5268 11.4645 93.4645C10.5268 94.4021 10 95.6739 10 97V100H7V104H10V112H14V104H17L18 100H14V97C14 96.7348 14.1054 96.4804 14.2929 96.2929C14.4804 96.1054 14.7348 96 15 96H18V92Z" stroke="#41EAD4" stroke-width="2" stroke-linecap="round" stroke-linejoin="round"/>
<path d="M23 2.99998C22.0424 3.67546 20.9821 4.19209 19.86 4.52999C19.2577 3.8375 18.4573 3.34668 17.567 3.12391C16.6767 2.90115 15.7395 2.95718 14.8821 3.28444C14.0247 3.6117 13.2884 4.19439 12.773 4.9537C12.2575 5.71302 11.9877 6.61232 12 7.52998V8.52998C10.2426 8.57555 8.50127 8.1858 6.93101 7.39543C5.36074 6.60506 4.01032 5.43862 3 3.99998C3 3.99998 -1 13 8 17C5.94053 18.398 3.48716 19.0989 1 19C10 24 21 19 21 7.49998C20.9991 7.22144 20.9723 6.94358 20.92 6.66999C21.9406 5.66348 22.6608 4.3927 23 2.99998V2.99998Z" stroke="#41EAD4" stroke-width="2" stroke-linecap="round" stroke-linejoin="round"/>
<defs>
<clipPath id="clip0_21_14">
<rect width="24" height="24" fill="white" transform="translate(0 44)"/>
</clipPath>
</defs>
</svg>
