<svg width="266" height="155" viewBox="0 0 266 155" fill="none" xmlns="http://www.w3.org/2000/svg">
<g filter="url(#filter0_d_31_14)">
<rect x="35" y="25" width="186" height="75" rx="8" fill="white"/>
</g>
<path d="M55.062 68V57.4971H57.4351L60.438 64.2646L60.6577 64.8799L60.8994 64.2646L63.917 57.4971H66.2974V68H64.2319V61.3569L63.9316 62.2725L61.5439 68H59.8081L57.4204 62.2725L57.1201 61.3569V68H55.062ZM68.3218 68L72.3867 57.4971H74.6499L78.7148 68H76.481L75.6094 65.6782H71.4272L70.5557 68H68.3218ZM72.0718 63.8765H74.9502L73.7051 60.5879L73.5073 60.002L73.3169 60.5879L72.0718 63.8765ZM80.7466 68V57.4971H83.9912C85.1094 57.4971 86.0029 57.8047 86.6719 58.4199C87.3457 59.0352 87.6826 59.8433 87.6826 60.8442C87.6826 61.4937 87.5215 62.0649 87.1992 62.5581C86.8818 63.0513 86.4326 63.4297 85.8516 63.6934L88.1294 68H85.771L83.7349 64.0669H82.8047V68H80.7466ZM82.8047 62.2432H83.9912C84.4795 62.2432 84.8628 62.1235 85.1411 61.8843C85.4243 61.645 85.5659 61.2983 85.5659 60.8442C85.5659 60.3804 85.4243 60.0288 85.1411 59.7896C84.8628 59.5454 84.4795 59.4233 83.9912 59.4233H82.8047V62.2432ZM89.3042 59.4233V57.4971H98.1958V59.4233H94.7754V68H92.7173V59.4233H89.3042ZM100.176 68V57.4971H102.234V68H100.176ZM105.116 68V57.4971H107.159L111.466 63.8618L111.898 64.5796V57.4971H113.971V68H111.898L107.577 61.6572L107.174 60.9614V68H105.116ZM119.858 64.5356H121.916C121.96 65.6245 122.414 66.1689 123.278 66.1689C123.659 66.1689 123.95 66.0396 124.15 65.7808C124.35 65.5171 124.45 65.1411 124.45 64.6528V57.4971H126.523V64.792C126.523 65.8906 126.242 66.7183 125.681 67.2749C125.124 67.8267 124.323 68.1025 123.278 68.1025C122.165 68.1025 121.323 67.7852 120.751 67.1504C120.185 66.5156 119.887 65.644 119.858 64.5356ZM128.02 68L132.085 57.4971H134.348L138.413 68H136.179L135.308 65.6782H131.125L130.254 68H128.02ZM131.77 63.8765H134.648L133.403 60.5879L133.206 60.002L133.015 60.5879L131.77 63.8765ZM139.471 62.7339C139.471 61.6987 139.693 60.7686 140.137 59.9434C140.582 59.1182 141.204 58.4736 142.005 58.0098C142.806 57.541 143.711 57.3066 144.722 57.3066C146.011 57.3066 147.063 57.6289 147.879 58.2734C148.694 58.9131 149.246 59.7847 149.534 60.8882H147.271C146.871 59.7798 146.021 59.2256 144.722 59.2256C143.799 59.2256 143.05 59.5552 142.474 60.2144C141.902 60.8735 141.617 61.7134 141.617 62.7339C141.617 63.7642 141.905 64.6113 142.481 65.2754C143.057 65.9395 143.809 66.2715 144.737 66.2715C145.44 66.2715 146.011 66.1152 146.451 65.8027C146.895 65.4902 147.212 65.063 147.403 64.521H149.578C149.285 65.6929 148.733 66.5986 147.923 67.2383C147.112 67.8779 146.05 68.1978 144.737 68.1978C143.721 68.1978 142.811 67.9634 142.005 67.4946C141.204 67.021 140.582 66.3691 140.137 65.5391C139.693 64.709 139.471 63.7739 139.471 62.7339ZM151.822 68V57.4971H153.888V62.8218L157.579 57.4971H160.084L156.795 62.2065L160.758 68H158.282L155.389 63.8618L153.888 65.8101V68H151.822ZM162.196 66.9819C162.196 66.6646 162.309 66.396 162.533 66.1763C162.758 65.9517 163.034 65.8394 163.361 65.8394C163.698 65.8394 163.976 65.9541 164.196 66.1836C164.42 66.4131 164.533 66.7231 164.533 67.1138C164.533 67.5923 164.416 68.0903 164.181 68.6079C163.947 69.1255 163.649 69.5869 163.288 69.9922L162.731 69.7871C162.975 69.2793 163.126 68.708 163.185 68.0732C162.897 68.0439 162.66 67.9292 162.475 67.729C162.289 67.5288 162.196 67.2798 162.196 66.9819Z" fill="black"/>
<path d="M170.024 62.7339C170.024 61.6987 170.247 60.7686 170.691 59.9434C171.135 59.1182 171.758 58.4736 172.559 58.0098C173.359 57.541 174.265 57.3066 175.276 57.3066C176.565 57.3066 177.617 57.6289 178.433 58.2734C179.248 58.9131 179.8 59.7847 180.088 60.8882H177.825C177.424 59.7798 176.575 59.2256 175.276 59.2256C174.353 59.2256 173.604 59.5552 173.027 60.2144C172.456 60.8735 172.17 61.7134 172.17 62.7339C172.17 63.7642 172.458 64.6113 173.035 65.2754C173.611 65.9395 174.363 66.2715 175.291 66.2715C175.994 66.2715 176.565 66.1152 177.004 65.8027C177.449 65.4902 177.766 65.063 177.957 64.521H180.132C179.839 65.6929 179.287 66.5986 178.477 67.2383C177.666 67.8779 176.604 68.1978 175.291 68.1978C174.275 68.1978 173.364 67.9634 172.559 67.4946C171.758 67.021 171.135 66.3691 170.691 65.5391C170.247 64.709 170.024 63.7739 170.024 62.7339ZM182.339 68V57.4971H188.389V59.4233H184.397V61.6426H187.847V63.5762H184.397V66.0811H188.389V68H182.339ZM190.318 62.7339C190.318 61.9575 190.453 61.2349 190.721 60.5659C190.99 59.897 191.361 59.3232 191.834 58.8447C192.313 58.3662 192.889 57.9902 193.563 57.7168C194.242 57.4434 194.974 57.3066 195.76 57.3066C196.805 57.3066 197.74 57.541 198.565 58.0098C199.396 58.4736 200.04 59.1182 200.499 59.9434C200.963 60.7686 201.195 61.6987 201.195 62.7339C201.195 63.7739 200.963 64.709 200.499 65.5391C200.04 66.3691 199.396 67.021 198.565 67.4946C197.74 67.9634 196.805 68.1978 195.76 68.1978C194.71 68.1978 193.771 67.9634 192.94 67.4946C192.11 67.021 191.466 66.3691 191.007 65.5391C190.548 64.709 190.318 63.7739 190.318 62.7339ZM192.464 62.7339C192.464 63.769 192.767 64.6187 193.373 65.2827C193.978 65.9419 194.774 66.2715 195.76 66.2715C196.742 66.2715 197.535 65.9395 198.141 65.2754C198.746 64.6113 199.049 63.7642 199.049 62.7339C199.049 61.7134 198.746 60.8735 198.141 60.2144C197.535 59.5552 196.742 59.2256 195.76 59.2256C194.774 59.2256 193.978 59.5552 193.373 60.2144C192.767 60.8735 192.464 61.7134 192.464 62.7339Z" fill="#00C9E0"/>
<defs>
<filter id="filter0_d_31_14" x="0" y="0" width="266" height="155" filterUnits="userSpaceOnUse" color-interpolation-filters="sRGB">
<feFlood flood-opacity="0" result="BackgroundImageFix"/>
<feColorMatrix in="SourceAlpha" type="matrix" values="0 0 0 0 0 0 0 0 0 0 0 0 0 0 0 0 0 0 127 0" result="hardAlpha"/>
<feOffset dx="5" dy="15"/>
<feGaussianBlur stdDeviation="20"/>
<feColorMatrix type="matrix" values="0 0 0 0 0 0 0 0 0 0.788235 0 0 0 0 0.878431 0 0 0 0.2 0"/>
<feBlend mode="normal" in2="BackgroundImageFix" result="effect1_dropShadow_31_14"/>
<feBlend mode="normal" in="SourceGraphic" in2="effect1_dropShadow_31_14" result="shape"/>
</filter>
</defs>
</svg>
